HIERARCHY
ROOT root
{
	OFFSET 0.000000 0.000000 0.000000
	CHANNELS 6 Xposition Yposition Zposition Zrotation Yrotation Xrotation
	JOINT lhip
	{
		OFFSET 0.058581 -0.082280 -0.017664
		CHANNELS 3 Zrotation Yrotation Xrotation
		JOINT lknee
		{
			OFFSET 0.043451 -0.386469 0.008037
			CHANNELS 3 Zrotation Yrotation Xrotation
			JOINT lankle
			{
				OFFSET -0.014790 -0.426874 -0.037428
				CHANNELS 3 Zrotation Yrotation Xrotation
				JOINT ltoe
				{
					OFFSET 0.041054 -0.060286 0.122042
					CHANNELS 3 Zrotation Yrotation Xrotation
					End Site
					{
						OFFSET 0.000000 0.000000 0.000000
					}
				}
			}
		}
	}
	JOINT rhip
	{
		OFFSET -0.060310 -0.090513 -0.013543
		CHANNELS 3 Zrotation Yrotation Xrotation
		JOINT rknee
		{
			OFFSET -0.043257 -0.383688 -0.004843
			CHANNELS 3 Zrotation Yrotation Xrotation
			JOINT rankle
			{
				OFFSET 0.019056 -0.420046 -0.034562
				CHANNELS 3 Zrotation Yrotation Xrotation
				JOINT rtoe
				{
					OFFSET -0.034840 -0.062106 0.130323
					CHANNELS 3 Zrotation Yrotation Xrotation
					End Site
					{
						OFFSET 0.000000 0.000000 0.000000
					}
				}
			}
		}
	}
	JOINT lowerback
	{
		OFFSET 0.004439 0.124404 -0.038385
		CHANNELS 3 Zrotation Yrotation Xrotation
		JOINT upperback
		{
			OFFSET 0.004488 0.137956 0.026820
			CHANNELS 3 Zrotation Yrotation Xrotation
			JOINT chest
			{
				OFFSET -0.002265 0.056032 0.002855
				CHANNELS 3 Zrotation Yrotation Xrotation
				JOINT lowerneck
				{
					OFFSET -0.013390 0.211636 -0.033468
					CHANNELS 3 Zrotation Yrotation Xrotation
					JOINT upperneck
					{
						OFFSET 0.010113 0.088937 0.050410
						CHANNELS 3 Zrotation Yrotation Xrotation
						End Site
						{
							OFFSET 0.000000 0.000000 0.000000
						}
					}
				}
				JOINT lclavicle
				{
					OFFSET 0.071702 0.114000 -0.018898
					CHANNELS 3 Zrotation Yrotation Xrotation
					JOINT lshoulder
					{
						OFFSET 0.122921 0.045205 -0.019046
						CHANNELS 3 Zrotation Yrotation Xrotation
						JOINT lelbow
						{
							OFFSET 0.255332 -0.015649 -0.022946
							CHANNELS 3 Zrotation Yrotation Xrotation
							JOINT lwrist
							{
								OFFSET 0.265709 0.012698 -0.007375
								CHANNELS 3 Zrotation Yrotation Xrotation
								End Site
								{
									OFFSET 0.000000 0.000000 0.000000
								}
							}
						}
					}
				}
				JOINT rclavicle
				{
					OFFSET -0.082954 0.112472 -0.023707
					CHANNELS 3 Zrotation Yrotation Xrotation
					JOINT rshoulder
					{
						OFFSET -0.113228 0.046853 -0.008472
						CHANNELS 3 Zrotation Yrotation Xrotation
						JOINT relbow
						{
							OFFSET -0.260127 -0.014369 -0.031269
							CHANNELS 3 Zrotation Yrotation Xrotation
							JOINT rwrist
							{
								OFFSET -0.269108 0.006794 -0.006027
								CHANNELS 3 Zrotation Yrotation Xrotation
								End Site
								{
									OFFSET 0.000000 0.000000 0.000000
								}
							}
						}
					}
				}
			}
		}
	}
}
MOTION
Frames: 14
Frame Time: 0.033333
0.108842 -1.226489 0.989998 -142.471624 0.226891 91.042915 0.960994 -6.077334 -8.387954 -5.371534 -15.842169 7.900020 1.043129 6.005675 -15.341185 0.000000 -0.000000 0.000000 1.506906 -3.917054 0.777853 2.741756 -10.608457 2.742043 3.222808 -14.391801 -15.908490 0.000000 -0.000000 0.000000 0.417179 3.076754 14.597285 -1.412955 -0.060389 -8.898990 1.210815 0.575250 1.813001 4.448097 16.736429 -5.796192 -0.339955 15.165698 5.998126 -26.320635 3.639392 -3.104872 -50.440197 -7.056907 4.496942 16.958522 -23.457758 -8.828821 8.727799 -5.696195 -6.871187 24.016534 3.851162 -1.542339 50.479399 8.265010 14.652578 -7.514447 19.945418 -1.236727 -1.922755 4.967668 -5.990322 
0.107249 -1.225217 0.989817 -142.654341 0.210913 91.066537 0.847329 -6.090521 -8.387729 -5.380255 -15.674219 8.243462 1.097905 6.293573 -15.627669 0.000000 -0.000000 0.000000 1.388165 -4.025043 0.816505 2.793829 -10.355052 2.891094 3.412641 -14.326514 -16.144227 0.000000 -0.000000 0.000000 0.318777 3.188434 14.472539 -1.406100 -0.071803 -8.924565 1.252367 0.555468 1.905637 4.441899 16.762170 -5.799215 -0.542488 15.057124 6.076361 -26.442787 3.796830 -3.304303 -50.357187 -7.108054 4.433755 16.789978 -23.300529 -8.788588 8.852686 -5.927168 -6.666222 24.026325 3.699081 -1.622524 50.449889 8.214176 14.740148 -7.557794 20.129152 -1.223770 -2.046638 4.958947 -5.840518 
0.105733 -1.224043 0.989610 -142.921332 0.193496 91.076365 0.745260 -6.108357 -8.252223 -5.363944 -15.602294 8.332295 1.240192 6.480693 -15.850520 0.000000 -0.000000 0.000000 1.203731 -4.322067 0.815165 2.811809 -10.104881 3.107330 3.564363 -14.034753 -16.282354 0.000000 -0.000000 0.000000 0.251131 3.285046 14.329788 -1.463243 -0.054984 -8.803426 1.252096 0.590256 1.871592 4.418772 17.031010 -5.653636 -0.547686 15.407118 6.173432 -26.470275 3.791840 -3.397662 -50.390199 -7.059230 4.440126 16.872783 -23.181551 -8.922865 9.051862 -5.823014 -6.506607 24.038418 3.697427 -1.607176 50.332429 8.205688 14.703710 -7.452817 20.189807 -1.284575 -1.885618 4.961019 -5.864002 
0.103302 -1.222842 0.989607 -143.507162 -0.025668 91.391423 0.384030 -6.354313 -8.434037 -5.363970 -15.394844 8.587606 1.864099 6.789757 -16.050277 0.000000 -0.000000 0.000000 0.489720 -5.181429 0.374128 3.037240 -9.233290 3.637493 3.774079 -13.466002 -16.351380 0.000000 -0.000000 0.000000 0.069856 3.502503 13.827402 -1.464985 -0.113724 -8.715612 1.092271 0.655809 1.863176 4.569781 16.960784 -5.677902 -0.555270 15.474519 6.624241 -26.580348 4.047383 -3.372217 -50.165807 -7.033067 4.501228 16.635900 -23.153962 -8.821177 8.624663 -5.724243 -6.474648 24.258992 3.619205 -1.561589 49.957545 8.365921 14.624606 -7.627144 20.085803 -1.577593 -1.460994 4.934606 -4.908919 
0.102571 -1.222280 0.989596 -143.660470 0.015209 91.439428 0.369077 -6.361899 -8.447517 -5.318816 -15.372412 8.700907 1.848383 6.910809 -16.164351 0.000000 -0.000000 0.000000 0.533829 -4.984548 0.333353 2.995299 -9.196531 3.717877 3.814571 -13.582460 -16.349921 0.000000 -0.000000 0.000000 0.055550 3.503571 13.690666 -1.444804 -0.021429 -8.619445 1.100346 0.627083 1.857614 4.590772 17.022394 -5.762269 -0.649546 15.479693 6.875354 -26.648762 4.101104 -3.371775 -50.138489 -7.074500 4.523430 16.628903 -23.105393 -8.843330 8.600443 -5.730575 -6.502288 24.243473 3.530379 -1.617839 49.889166 8.450762 14.724472 -7.556569 19.989611 -1.483035 -1.492091 5.027898 -4.975339 
0.101011 -1.221199 0.989593 -144.059491 0.053146 91.497787 0.353608 -6.348917 -8.381473 -5.460849 -15.501805 8.732988 1.923262 6.902596 -16.743261 0.000000 -0.000000 0.000000 0.449713 -4.984441 0.279536 2.970014 -9.040656 3.908081 3.923954 -13.308463 -16.357251 0.000000 -0.000000 0.000000 0.045289 3.552060 13.560162 -1.461499 0.025814 -8.471120 1.088280 0.700610 1.637031 4.663683 17.001154 -5.333071 -0.462911 15.463844 7.229371 -26.561604 4.075742 -3.151915 -50.307005 -7.053464 4.378348 16.903733 -22.939934 -9.060866 8.584860 -5.734229 -6.452510 24.121609 3.541052 -1.375761 49.991414 8.549656 14.472085 -7.686951 19.863330 -1.615501 -1.245257 5.078244 -5.071613 
0.099356 -1.220045 0.989507 -144.435513 0.030889 91.628741 0.291961 -6.250398 -8.394254 -5.408436 -15.148378 8.919795 2.143560 7.340571 -16.644761 0.000000 -0.000000 0.000000 0.281072 -5.074711 0.094879 3.023736 -8.635630 4.208535 3.889899 -13.295106 -16.470032 0.000000 -0.000000 0.000000 -0.067764 3.695129 13.305057 -1.416824 0.120195 -8.320701 1.102580 0.625793 1.451329 4.688394 16.805267 -4.907420 -0.467227 15.429071 7.797060 -26.540007 4.057172 -2.972510 -50.301475 -7.053636 4.423556 16.820058 -22.722479 -8.940223 8.792678 -5.505628 -6.367010 24.164246 3.478333 -1.186350 49.857867 8.504092 14.420240 -7.763656 19.978406 -1.675071 -1.173064 5.030896 -5.237098 
0.097609 -1.219028 0.989457 -144.821375 -0.016914 91.642493 0.148153 -6.301345 -8.407714 -5.549581 -15.073900 9.385553 2.314511 7.789257 -17.201437 0.000000 -0.000000 0.000000 0.061589 -5.031648 0.016051 3.100595 -8.250964 4.529630 3.902935 -13.354650 -16.668996 0.000000 -0.000000 0.000000 -0.048774 3.626177 13.318009 -1.374834 0.100624 -8.465194 0.966527 0.687119 1.573833 4.828549 16.769694 -5.051319 -0.726818 15.305614 9.309337 -26.642716 4.151806 -2.909890 -50.067997 -7.054862 4.457765 16.734363 -22.757840 -9.077227 8.185213 -5.350690 -6.521808 24.317365 3.440303 -1.121330 49.709543 8.614309 14.683274 -7.896447 19.999234 -1.782138 -0.575983 4.968616 -5.227004 
0.095687 -1.217864 0.989028 -145.176021 0.064423 91.587094 -0.027882 -6.367759 -8.581785 -5.598444 -15.027872 10.345687 2.458472 8.293422 -18.015312 0.000000 -0.000000 0.000000 -0.023096 -4.819544 0.110963 3.176504 -8.131953 4.767033 4.016161 -13.263179 -16.958684 0.000000 -0.000000 0.000000 0.074816 3.592765 13.470311 -1.277704 0.069357 -8.716995 0.888588 0.751822 1.677934 4.948241 16.452202 -4.919660 -0.939650 14.592716 10.730362 -26.615201 4.209272 -2.848240 -50.078738 -7.209924 4.359358 16.722863 -22.283729 -9.013478 8.239718 -5.589980 -6.429757 24.313844 3.201347 -1.175530 49.759960 8.783994 14.565706 -7.998720 19.904476 -1.860770 -0.651371 4.989219 -5.377535 
0.093397 -1.216753 0.988286 -145.695209 0.110611 91.599070 -0.240699 -6.919575 -9.048281 -5.811271 -14.508938 11.721402 2.817917 8.780788 -19.317898 0.000000 -0.000000 0.000000 -0.303174 -4.732256 -0.284811 3.417125 -7.653201 5.802135 4.244581 -13.118964 -17.740595 0.000000 -0.000000 0.000000 0.097486 3.600273 13.380550 -1.099305 0.060636 -8.728377 0.764812 0.834882 1.775204 5.068731 15.603204 -4.820405 -1.056747 13.197124 12.179069 -26.604198 4.350241 -2.884057 -50.014853 -7.227822 4.407805 16.619042 -22.333475 -8.978370 8.041474 -5.437341 -6.642713 24.405442 3.168769 -1.066555 49.628169 8.860820 14.459984 -8.121265 20.028015 -2.194741 -0.533483 4.806864 -5.409983 
0.091022 -1.215665 0.987369 -146.294043 0.261434 91.592722 -0.409056 -7.030464 -9.392400 -5.801406 -14.256322 13.107234 3.207774 9.696862 -20.228115 0.000000 -0.000000 0.000000 -0.497603 -4.807205 -0.899189 3.647878 -6.998581 7.327441 4.286573 -12.893964 -18.607524 0.000000 -0.000000 0.000000 0.170259 3.706991 13.264133 -0.877576 0.162256 -8.751265 0.650486 0.809514 2.236702 5.110321 14.395107 -5.377347 -1.296515 11.212246 13.647403 -26.704182 4.479450 -3.135032 -49.832984 -7.436654 4.497682 16.391955 -22.295370 -8.870155 7.548707 -5.203695 -6.571776 24.585796 3.024084 -1.366024 49.420703 8.876906 14.397480 -8.317063 20.081502 -2.294993 0.248614 4.606961 -5.242679 
0.088498 -1.213936 0.986452 -146.970505 0.407986 91.440952 -0.594010 -6.862944 -9.368278 -5.811070 -14.193812 14.070962 3.344021 10.391588 -21.527698 0.000000 -0.000000 0.000000 -0.631254 -4.605882 -1.417528 3.769024 -6.617777 9.065205 4.532563 -12.601171 -19.602573 0.000000 -0.000000 0.000000 0.018908 3.672918 13.419482 -0.579311 0.264514 -8.859184 0.576326 0.907011 2.527122 5.861009 12.115065 -5.594426 -1.399752 7.773967 14.853624 -26.821802 4.715630 -3.191984 -49.595627 -7.720017 4.506061 16.239892 -22.064849 -8.854220 7.908325 -5.391775 -6.021301 24.758506 2.723282 -1.925057 49.274575 8.834417 14.251163 -8.141409 20.059679 -2.174576 0.419250 4.560455 -5.227291 
0.086006 -1.211752 0.985483 -147.896708 0.565362 91.327105 -0.759940 -6.560578 -9.444470 -5.802777 -13.617110 15.538922 4.159300 10.542403 -23.193605 0.000000 -0.000000 0.000000 -0.711543 -4.451959 -2.389092 3.778439 -6.293382 11.447925 4.839530 -12.342626 -20.626054 0.000000 -0.000000 0.000000 -0.271861 3.671708 13.517960 -0.232908 0.461460 -8.834847 0.566763 0.877566 2.764197 6.658754 9.361751 -5.784265 -1.622552 4.110386 15.776982 -26.797243 4.991870 -3.216301 -49.444353 -7.864103 4.551202 15.893298 -22.120246 -8.621679 6.838347 -5.280999 -5.855240 24.698208 2.596731 -2.288139 49.122360 8.752008 14.232476 -7.852191 20.233316 -2.087265 1.317777 4.272716 -5.817318 
0.083491 -1.209434 0.984548 -148.941520 0.685637 91.387137 -0.791215 -6.491140 -9.151213 -5.713919 -13.158699 15.649790 4.363738 11.398921 -23.468233 0.000000 -0.000000 0.000000 -0.929389 -4.607307 -4.078629 3.938300 -5.732039 14.772458 5.102491 -12.048569 -21.653149 0.000000 -0.000000 0.000000 -0.827573 3.588114 13.251872 0.222798 0.580482 -8.727484 0.604641 0.845757 3.254843 7.570406 7.242951 -6.215759 -1.780481 0.842821 16.678362 -26.953724 5.121351 -3.304357 -49.166813 -7.949379 4.800864 15.791456 -21.602488 -8.942919 7.901177 -5.338974 -5.545267 25.015105 2.596050 -2.614512 48.822302 8.786011 14.347971 -7.932152 20.323202 -2.488907 0.933454 4.283839 -5.733560 
